<svg width="21" height="21" viewBox="0 0 21 21" fill="none" xmlns="http://www.w3.org/2000/svg">
<path d="M3.08606 9.44301C2.63106 5.74176 5.74614 2.62668 9.44739 3.08168C11.8971 3.37934 13.9267 5.32136 14.338 7.75356C14.6355 9.52981 14.0931 11.2014 13.0431 12.4264L13.2882 12.6627H13.9796L17.6896 16.3903C18.0482 16.749 18.0483 17.3353 17.6896 17.694C17.3309 18.0527 16.7446 18.0526 16.3859 17.694L12.6671 13.9752V13.2838L12.4308 13.0387C11.2058 14.0887 9.53418 14.6311 7.75793 14.3336C5.32573 13.9223 3.38372 11.8927 3.08606 9.44301ZM8.72961 4.78774C6.55086 4.78774 4.79211 6.54649 4.79211 8.72524C4.79218 10.9039 6.5509 12.6627 8.72961 12.6627C10.9083 12.6627 12.667 10.9039 12.6671 8.72524C12.6671 6.54653 10.9083 4.7878 8.72961 4.78774Z" fill="#1B1B1B"/>
</svg>
